<svg width="100" height="83" viewBox="57 0 100 83" fill="none" xmlns="http://www.w3.org/2000/svg">
<path d="M112.667 9.32657C112.67 10.3523 112.335 11.3561 111.704 12.2129L101.885 12.2635C101.369 11.5808 101.04 10.7994 100.923 9.98219C100.807 9.16501 100.907 8.33483 101.215 7.55836C101.523 6.78189 102.03 6.08078 102.697 5.5114C103.363 4.94202 104.17 4.52025 105.052 4.27997C105.934 4.03969 106.867 3.9876 107.776 4.12791C108.685 4.26822 109.544 4.597 110.285 5.08783C111.025 5.57866 111.627 6.21784 112.04 6.95402C112.454 7.69019 112.669 8.5028 112.667 9.32657Z" fill="#222B36"/>
<path d="M106.772 22.8771H103.495L103.235 13.408H106.772H110.332L110.06 22.8771H106.772Z" fill="#222B36"/>
<path d="M132.689 27.6268C128.691 27.6786 124.712 27.1239 120.921 25.9862C115.615 24.4164 112.758 24.9734 111.023 27.1204C110.203 28.1939 109.75 29.457 109.72 30.7562L108.71 50.2109H104.856L103.847 30.7562C103.816 29.457 103.363 28.1939 102.543 27.1204C100.808 24.9734 98.0078 24.4164 92.6451 25.9862C88.8545 27.1239 84.8752 27.6786 80.8767 27.6268C84.9356 23.353 89.1645 23.6771 89.1645 23.6771H124.402C124.402 23.6771 128.665 23.353 132.689 27.6268Z" fill="#222B36"/>
<path d="M122.543 16.7196C126.001 16.5069 129.469 16.9914 132.69 18.1374C137.505 20.0032 142.69 20.9914 147.939 21.0439C147.167 21.8918 146.334 22.6936 145.444 23.4441C142.293 23.2445 139.182 22.6968 136.182 21.8136C132.554 20.5173 129.243 18.7754 122.282 19.221C125.276 19.2809 128.239 19.7734 131.057 20.6794C135.717 22.1884 136.919 23.6669 143.392 24.9126C143.122 25.0843 142.842 25.2432 142.553 25.3886C141.547 25.9052 140.483 26.3261 139.379 26.6444C139.379 26.6444 133.631 23.4543 130.037 21.9453C127.231 20.9305 124.197 20.5244 121.182 20.7604C124.299 20.6724 127.386 21.326 130.127 22.6542C132.742 23.964 135.243 25.4467 137.61 27.09C136.301 27.353 134.97 27.5189 133.631 27.5862C133.631 27.5862 130.354 22.8669 124.334 22.8669H112.667C112.667 22.8669 119.085 20.0312 119.085 15.1397C119.075 13.8908 118.731 12.662 118.083 11.5558C117.434 10.4495 116.498 9.49771 115.354 8.7797C115.247 8.70532 115.164 8.6061 115.115 8.49273C115.065 8.37936 115.052 8.25613 115.075 8.13632C115.098 8.0165 115.158 7.90465 115.247 7.81279C115.336 7.72094 115.452 7.65257 115.581 7.61505C116.71 7.28409 117.901 7.16006 119.085 7.25045C122.066 7.47325 124.923 10.2887 126.681 11.3014C130.788 13.4609 135.373 14.7949 140.116 15.2106C143.989 15.3285 147.858 14.8769 151.567 13.8738C151.715 13.8407 151.872 13.8461 152.017 13.8895C152.162 13.9329 152.291 14.0125 152.387 14.1189C152.483 14.2252 152.544 14.3539 152.561 14.4899C152.579 14.6259 152.552 14.7635 152.485 14.8865C151.62 16.3041 150.666 17.6769 149.628 18.9982C149.311 18.9982 144.526 19.2413 140.501 19.0691C136.476 18.897 130.195 15.7068 122.543 16.7196Z" fill="#222B36"/>
<path d="M91.0239 16.7196C87.5653 16.5069 84.0975 16.9914 80.8768 18.1374C76.0681 20.0006 70.8917 20.9887 65.6504 21.0439C66.4222 21.8918 67.2554 22.6936 68.1447 23.4441C71.2958 23.2445 74.4072 22.6968 77.4075 21.8136C81.0355 20.5173 84.3461 18.7754 91.3074 19.221C88.3133 19.2809 85.3499 19.7734 82.5321 20.6794C77.8723 22.1884 76.6705 23.6669 70.1968 24.9126C70.4669 25.0843 70.747 25.2432 71.0358 25.3886C72.0419 25.9052 73.1059 26.3261 74.2103 26.6444C74.2103 26.6444 79.9584 23.4543 83.5525 21.9453C86.3576 20.9305 89.3922 20.5244 92.4071 20.7604C89.2901 20.6724 86.203 21.326 83.4618 22.6542C80.8471 23.964 78.3459 25.4467 75.979 27.09C77.2879 27.353 78.6189 27.5189 79.9585 27.5862C79.9585 27.5862 83.235 22.8669 89.2553 22.8669H100.899C100.899 22.8669 94.4819 20.0312 94.4819 15.1397C94.4915 13.8908 94.835 12.662 95.4838 11.5558C96.1326 10.4495 97.068 9.49771 98.212 8.7797C98.3197 8.70532 98.4027 8.6061 98.4519 8.49273C98.5012 8.37936 98.5149 8.25613 98.4916 8.13632C98.4682 8.0165 98.4088 7.90465 98.3195 7.81279C98.2303 7.72094 98.1147 7.65257 97.9852 7.61505C96.8568 7.28409 95.6652 7.16006 94.4819 7.25045C91.5001 7.47325 88.643 10.2887 86.8857 11.3014C82.7785 13.4609 78.1938 14.7949 73.4507 15.2106C69.5775 15.3285 65.7089 14.8769 61.9997 13.8738C61.8511 13.8407 61.6949 13.8461 61.5496 13.8895C61.4043 13.9329 61.2759 14.0125 61.1795 14.1189C61.083 14.2252 61.0226 14.3539 61.0052 14.4899C60.9878 14.6259 61.0142 14.7635 61.0814 14.8865C61.9461 16.3041 62.9 17.6769 63.9385 18.9982C64.2559 18.9982 69.0404 19.2413 73.0652 19.0691C77.0901 18.897 83.371 15.7068 91.0239 16.7196Z" fill="#222B36"/>
<path d="M113.631 35.83C113.631 35.83 139.537 36.3161 138.88 46.1295C138.245 55.3657 112.157 57.1684 112.157 57.1684L113.155 52.6819C113.155 52.6819 135.014 52.0439 136.148 45.846C137.281 39.648 121.001 38.0884 113.472 38.0782L113.631 35.83Z" fill="#222B36"/>
<path d="M89.0965 48.074L81.6931 51.9832C79.9366 51.0496 78.3658 49.8621 77.0447 48.469L86.795 45.613C87.3457 46.5773 88.1323 47.4184 89.0965 48.074Z" fill="#79EE12"/>
<path d="M96.5114 33.3589L92.5886 41.0152L88.303 38.7365C87.6449 39.2808 87.1138 39.9358 86.7403 40.6641C86.3667 41.3923 86.158 42.1794 86.1262 42.9799L74.7092 43.5977V43.5369C74.7092 38.6555 82.0106 35.435 82.0106 35.435L77.8157 32.9842L96.5114 33.3589Z" fill="#79EE12"/>
<path d="M99.2664 51.6794L94.3572 56.0848C92.0734 55.7023 89.8257 55.164 87.634 54.4745L93.3028 50.14L93.4956 50.2109C95.375 50.8295 97.3041 51.3204 99.2664 51.6794Z" fill="#79EE12"/>
<path d="M110.321 52.7225L108.484 57.2089C105.65 57.2089 103.031 57.0773 100.616 56.8747L104.731 52.4389C106.931 52.6516 108.858 52.7123 110.321 52.7225Z" fill="#79EE12"/>
<path d="M83.5072 56.905H80.1059C80.0284 56.5925 79.9904 56.2732 79.9925 55.9531C79.9925 55.2745 81.1263 54.3124 81.1263 54.3124H83.2464C83.3144 55.1226 82.8269 56.186 83.5072 56.905Z" fill="#222B36"/>
<path d="M87.4979 59.4673L84.8336 61.908C83.3484 61.0877 81.7725 60.4901 80.9448 59.528L84.2101 57.6646C85.2141 58.3901 86.3193 58.996 87.4979 59.4673Z" fill="#222B36"/>
<path d="M89.6295 60.3483C91.0613 60.8076 92.5227 61.1898 94.0058 61.4927L92.2258 64.5309C90.3842 64.0812 88.5745 63.5334 86.8064 62.8903L89.6295 60.3483Z" fill="#222B36"/>
<path d="M106.783 65.7766C102.776 65.8996 98.7664 65.6382 94.822 64.9968L96.2619 61.827C99.6028 62.2556 102.979 62.4284 106.352 62.3434C117.928 62.3434 129.776 59.9838 130.422 55.5581H133.574C135.014 62.3738 121.601 65.7766 106.783 65.7766Z" fill="#222B36"/>
<path d="M86.5795 64.9462L84.7429 66.4147C83.8039 65.4775 83.3152 64.248 83.3823 62.9916H85.3324C85.3857 63.3748 85.5233 63.7448 85.7373 64.0803C85.9514 64.4157 86.2376 64.71 86.5795 64.9462Z" fill="#222B36"/>
<path d="M91.5115 67.2451L90.1169 69.6352C88.8337 69.1936 87.6184 68.6083 86.5002 67.8933L88.2009 65.9995C89.2478 66.5257 90.3585 66.9436 91.5115 67.2451Z" fill="#222B36"/>
<path d="M106.783 71.7316C101.878 71.8467 96.9785 71.3525 92.2256 70.2631L93.2233 67.6502C97.6977 68.4723 102.261 68.8425 106.828 68.7541C126.25 68.7541 128.098 63.0929 128.098 63.0929H130.218C130.218 63.0929 131.635 71.7316 106.783 71.7316Z" fill="#222B36"/>
<path d="M105.931 72.5317H107.53L107.235 78.3549H106.226L105.931 72.5317Z" fill="#222B36"/>
<path d="M107.836 66.354L107.745 68.106H105.715L105.625 66.354H107.836Z" fill="#222B36"/>
<path d="M108.221 58.6572L108.051 61.9688H105.409L105.239 58.6572H108.221Z" fill="#222B36"/>
</svg>
