<svg width="152" height="32" viewBox="30 96 152 32" fill="none" xmlns="http://www.w3.org/2000/svg">
<path d="M128.567 119.833C127.516 119.833 126.706 119.54 126.136 118.953C125.576 118.366 125.296 117.521 125.296 116.418V108.273H123.693C123.553 108.273 123.435 108.234 123.338 108.155C123.242 108.067 123.194 107.936 123.194 107.761V106.828L125.375 106.552L125.913 102.44C125.931 102.309 125.988 102.204 126.084 102.125C126.18 102.037 126.303 101.994 126.452 101.994H127.634V106.578H131.444V108.273H127.634V116.26C127.634 116.821 127.77 117.237 128.041 117.508C128.313 117.78 128.663 117.915 129.092 117.915C129.337 117.915 129.548 117.885 129.723 117.823C129.907 117.753 130.064 117.679 130.196 117.6C130.327 117.521 130.437 117.451 130.524 117.39C130.62 117.32 130.704 117.285 130.774 117.285C130.896 117.285 131.006 117.359 131.102 117.508L131.785 118.625C131.382 119.001 130.896 119.299 130.327 119.518C129.758 119.728 129.171 119.833 128.567 119.833Z" fill="black"/>
<path d="M113.937 119.623V106.316H115.277C115.531 106.316 115.706 106.364 115.802 106.46C115.899 106.556 115.964 106.723 115.999 106.959L116.157 109.035C116.613 108.107 117.173 107.384 117.839 106.867C118.513 106.342 119.301 106.079 120.203 106.079C120.571 106.079 120.904 106.123 121.202 106.21C121.499 106.289 121.775 106.403 122.029 106.552L121.727 108.299C121.666 108.518 121.53 108.628 121.32 108.628C121.197 108.628 121.009 108.588 120.755 108.509C120.501 108.422 120.146 108.378 119.691 108.378C118.876 108.378 118.193 108.615 117.642 109.087C117.099 109.56 116.643 110.248 116.275 111.15V119.623H113.937Z" fill="black"/>
<path d="M104.724 106.105C105.696 106.105 106.572 106.267 107.351 106.591C108.139 106.916 108.805 107.375 109.348 107.971C109.9 108.566 110.32 109.289 110.609 110.138C110.907 110.979 111.056 111.921 111.056 112.963C111.056 114.014 110.907 114.96 110.609 115.8C110.32 116.641 109.9 117.359 109.348 117.955C108.805 118.55 108.139 119.01 107.351 119.334C106.572 119.649 105.696 119.807 104.724 119.807C103.752 119.807 102.872 119.649 102.083 119.334C101.304 119.01 100.638 118.55 100.087 117.955C99.5349 117.359 99.1101 116.641 98.8124 115.8C98.5146 114.96 98.3657 114.014 98.3657 112.963C98.3657 111.921 98.5146 110.979 98.8124 110.138C99.1101 109.289 99.5349 108.566 100.087 107.971C100.638 107.375 101.304 106.916 102.083 106.591C102.872 106.267 103.752 106.105 104.724 106.105ZM104.724 117.981C106.038 117.981 107.018 117.543 107.667 116.667C108.315 115.783 108.639 114.552 108.639 112.976C108.639 111.391 108.315 110.156 107.667 109.271C107.018 108.387 106.038 107.945 104.724 107.945C104.058 107.945 103.48 108.058 102.99 108.286C102.499 108.514 102.088 108.842 101.755 109.271C101.431 109.701 101.186 110.23 101.019 110.861C100.862 111.483 100.783 112.188 100.783 112.976C100.783 113.764 100.862 114.469 101.019 115.091C101.186 115.713 101.431 116.238 101.755 116.667C102.088 117.088 102.499 117.412 102.99 117.639C103.48 117.867 104.058 117.981 104.724 117.981Z" fill="black"/>
<path d="M84.8411 124.129V106.316H86.2336C86.5664 106.316 86.7765 106.478 86.8641 106.802L87.0612 108.378C87.6304 107.686 88.2785 107.13 89.0054 106.71C89.7411 106.289 90.5862 106.079 91.5408 106.079C92.3027 106.079 92.9946 106.228 93.6164 106.526C94.2382 106.815 94.7681 107.248 95.206 107.826C95.6439 108.396 95.981 109.105 96.2175 109.954C96.454 110.804 96.5722 111.78 96.5722 112.884C96.5722 113.865 96.4408 114.78 96.1781 115.63C95.9154 116.47 95.5388 117.202 95.0483 117.823C94.5579 118.436 93.9536 118.923 93.2355 119.282C92.5261 119.632 91.7247 119.807 90.8314 119.807C90.0082 119.807 89.3032 119.671 88.7164 119.4C88.1384 119.128 87.6261 118.743 87.1794 118.244V124.129H84.8411ZM90.7657 107.971C90.0038 107.971 89.3338 108.146 88.7558 108.496C88.1866 108.847 87.6611 109.341 87.1794 109.981V116.418C87.6085 116.996 88.0771 117.403 88.585 117.639C89.1018 117.876 89.6754 117.994 90.306 117.994C91.5408 117.994 92.491 117.552 93.1566 116.667C93.8222 115.783 94.155 114.522 94.155 112.884C94.155 112.017 94.0762 111.273 93.9186 110.651C93.7697 110.029 93.5507 109.521 93.2617 109.127C92.9727 108.724 92.618 108.431 92.1977 108.247C91.7773 108.063 91.3 107.971 90.7657 107.971Z" fill="black"/>
<path d="M76.041 105.79C76.943 105.79 77.7663 105.93 78.5107 106.211C79.2639 106.491 79.9076 106.898 80.4418 107.432C80.9848 107.966 81.4051 108.623 81.7029 109.403C82.0094 110.173 82.1627 111.049 82.1627 112.03C82.1627 112.337 82.1496 112.586 82.1233 112.779C82.097 112.972 82.0488 113.125 81.9788 113.239C81.9087 113.353 81.8124 113.431 81.6898 113.475C81.5759 113.519 81.427 113.541 81.2431 113.541H73.3873C73.5187 114.679 73.8646 115.507 74.4251 116.024C74.9856 116.532 75.7082 116.786 76.5927 116.786C77.0656 116.786 77.4729 116.729 77.8144 116.615C78.156 116.501 78.4581 116.374 78.7209 116.234C78.9924 116.094 79.2376 115.967 79.4565 115.853C79.6842 115.739 79.9207 115.682 80.1659 115.682C80.4899 115.682 80.7352 115.8 80.9016 116.037L82.0839 117.495C81.6635 117.977 81.2081 118.371 80.7177 118.677C80.236 118.975 79.7368 119.212 79.2201 119.387C78.7121 119.553 78.1998 119.667 77.6831 119.728C77.1751 119.798 76.689 119.833 76.2249 119.833C75.2703 119.833 74.3726 119.68 73.5318 119.374C72.6998 119.058 71.9686 118.594 71.338 117.981C70.7162 117.368 70.2214 116.606 69.8535 115.695C69.4945 114.784 69.3149 113.725 69.3149 112.516C69.3149 111.605 69.4682 110.743 69.7747 109.928C70.09 109.114 70.5367 108.4 71.1147 107.787C71.7015 107.174 72.4065 106.688 73.2297 106.329C74.0617 105.97 74.9988 105.79 76.041 105.79ZM76.1198 108.601C75.3403 108.601 74.7317 108.825 74.2938 109.271C73.8559 109.709 73.5669 110.344 73.4268 111.176H78.5107C78.5107 110.852 78.4669 110.537 78.3793 110.23C78.3005 109.924 78.1647 109.652 77.9721 109.416C77.7882 109.171 77.5429 108.974 77.2364 108.825C76.9299 108.676 76.5577 108.601 76.1198 108.601Z" fill="black"/>
<path d="M66.9201 99.9574V119.623H62.8477V99.9574H66.9201Z" fill="black"/>
<path d="M54.2575 105.79C55.1596 105.79 55.9828 105.93 56.7272 106.211C57.4804 106.491 58.1241 106.898 58.6583 107.432C59.2013 107.966 59.6217 108.623 59.9195 109.403C60.226 110.173 60.3793 111.049 60.3793 112.03C60.3793 112.337 60.3661 112.586 60.3398 112.779C60.3136 112.972 60.2654 113.125 60.1953 113.239C60.1253 113.353 60.0289 113.431 59.9063 113.475C59.7925 113.519 59.6436 113.541 59.4597 113.541H51.6039C51.7353 114.679 52.0812 115.507 52.6417 116.024C53.2022 116.532 53.9247 116.786 54.8093 116.786C55.2822 116.786 55.6894 116.729 56.031 116.615C56.3725 116.501 56.6747 116.374 56.9374 116.234C57.2089 116.094 57.4541 115.967 57.6731 115.853C57.9008 115.739 58.1372 115.682 58.3825 115.682C58.7065 115.682 58.9517 115.8 59.1181 116.037L60.3004 117.495C59.8801 117.977 59.4246 118.371 58.9342 118.677C58.4525 118.975 57.9533 119.212 57.4366 119.387C56.9287 119.553 56.4163 119.667 55.8996 119.728C55.3917 119.798 54.9056 119.833 54.4414 119.833C53.4868 119.833 52.5891 119.68 51.7484 119.374C50.9164 119.058 50.1851 118.594 49.5546 117.981C48.9327 117.368 48.4379 116.606 48.0701 115.695C47.711 114.784 47.5315 113.725 47.5315 112.516C47.5315 111.605 47.6848 110.743 47.9913 109.928C48.3066 109.114 48.7532 108.4 49.3312 107.787C49.918 107.174 50.623 106.688 51.4463 106.329C52.2782 105.97 53.2153 105.79 54.2575 105.79ZM54.3363 108.601C53.5569 108.601 52.9482 108.825 52.5103 109.271C52.0724 109.709 51.7834 110.344 51.6433 111.176H56.7272C56.7272 110.852 56.6834 110.537 56.5959 110.23C56.517 109.924 56.3813 109.652 56.1886 109.416C56.0047 109.171 55.7595 108.974 55.453 108.825C55.1464 108.676 54.7742 108.601 54.3363 108.601Z" fill="black"/>
<path d="M49.2124 100.483V104.004H43.8263V119.623H39.3861V104.004H34V100.483H49.2124Z" fill="black"/>
<path d="M178.078 110.046C178.078 111.43 177.838 112.709 177.356 113.882C176.883 115.047 176.213 116.059 175.346 116.917C174.479 117.766 173.432 118.432 172.206 118.914C170.989 119.387 169.636 119.623 168.147 119.623H160.712V100.483H168.147C169.636 100.483 170.989 100.724 172.206 101.205C173.432 101.687 174.479 102.353 175.346 103.202C176.213 104.052 176.883 105.063 177.356 106.237C177.838 107.402 178.078 108.671 178.078 110.046ZM173.533 110.046C173.533 109.101 173.411 108.247 173.165 107.485C172.92 106.723 172.565 106.079 172.101 105.554C171.646 105.019 171.085 104.612 170.42 104.332C169.754 104.043 168.997 103.898 168.147 103.898H165.178V116.208H168.147C168.997 116.208 169.754 116.067 170.42 115.787C171.085 115.498 171.646 115.091 172.101 114.565C172.565 114.031 172.92 113.383 173.165 112.621C173.411 111.859 173.533 111.001 173.533 110.046Z" fill="#79EE12"/>
<path d="M145.816 110.874C145.991 111.207 146.157 111.553 146.315 111.912C146.481 112.271 146.639 112.639 146.788 113.015C146.937 112.63 147.094 112.258 147.261 111.899C147.427 111.531 147.598 111.176 147.773 110.835L152.686 101.166C152.774 101 152.861 100.873 152.949 100.785C153.045 100.689 153.15 100.619 153.264 100.575C153.378 100.531 153.505 100.505 153.645 100.496C153.794 100.487 153.965 100.483 154.158 100.483H157.547V119.623H153.632V108.615C153.632 108.08 153.658 107.502 153.711 106.88L148.64 116.72C148.482 117.026 148.268 117.259 147.996 117.416C147.734 117.574 147.432 117.653 147.09 117.653H146.486C146.144 117.653 145.838 117.574 145.566 117.416C145.303 117.259 145.093 117.026 144.936 116.72L139.838 106.867C139.874 107.174 139.9 107.48 139.917 107.787C139.935 108.085 139.944 108.361 139.944 108.615V119.623H136.029V100.483H139.418C139.611 100.483 139.777 100.487 139.917 100.496C140.066 100.505 140.198 100.531 140.311 100.575C140.425 100.619 140.526 100.689 140.614 100.785C140.71 100.873 140.802 101 140.889 101.166L145.816 110.874Z" fill="#79EE12"/>
</svg>
