<svg width="233" height="64" viewBox="0 0 233 64" fill="none" xmlns="http://www.w3.org/2000/svg">
<g transform="translate(-41.75 1.01) scale(0.75)">
<path d="M112.667 9.32657C112.67 10.3523 112.335 11.3561 111.704 12.2129L101.885 12.2635C101.369 11.5808 101.04 10.7994 100.923 9.98219C100.807 9.16501 100.907 8.33483 101.215 7.55836C101.523 6.78189 102.03 6.08078 102.697 5.5114C103.363 4.94202 104.17 4.52025 105.052 4.27997C105.934 4.03969 106.867 3.9876 107.776 4.12791C108.685 4.26822 109.544 4.597 110.285 5.08783C111.025 5.57866 111.627 6.21784 112.04 6.95402C112.454 7.69019 112.669 8.5028 112.667 9.32657Z" fill="#222B36"/>
<path d="M106.772 22.8771H103.495L103.235 13.408H106.772H110.332L110.06 22.8771H106.772Z" fill="#222B36"/>
<path d="M132.689 27.6268C128.691 27.6786 124.712 27.1239 120.921 25.9862C115.615 24.4164 112.758 24.9734 111.023 27.1204C110.203 28.1939 109.75 29.457 109.72 30.7562L108.71 50.2109H104.856L103.847 30.7562C103.816 29.457 103.363 28.1939 102.543 27.1204C100.808 24.9734 98.0078 24.4164 92.6451 25.9862C88.8545 27.1239 84.8752 27.6786 80.8767 27.6268C84.9356 23.353 89.1645 23.6771 89.1645 23.6771H124.402C124.402 23.6771 128.665 23.353 132.689 27.6268Z" fill="#222B36"/>
<path d="M122.543 16.7196C126.001 16.5069 129.469 16.9914 132.69 18.1374C137.505 20.0032 142.69 20.9914 147.939 21.0439C147.167 21.8918 146.334 22.6936 145.444 23.4441C142.293 23.2445 139.182 22.6968 136.182 21.8136C132.554 20.5173 129.243 18.7754 122.282 19.221C125.276 19.2809 128.239 19.7734 131.057 20.6794C135.717 22.1884 136.919 23.6669 143.392 24.9126C143.122 25.0843 142.842 25.2432 142.553 25.3886C141.547 25.9052 140.483 26.3261 139.379 26.6444C139.379 26.6444 133.631 23.4543 130.037 21.9453C127.231 20.9305 124.197 20.5244 121.182 20.7604C124.299 20.6724 127.386 21.326 130.127 22.6542C132.742 23.964 135.243 25.4467 137.61 27.09C136.301 27.353 134.97 27.5189 133.631 27.5862C133.631 27.5862 130.354 22.8669 124.334 22.8669H112.667C112.667 22.8669 119.085 20.0312 119.085 15.1397C119.075 13.8908 118.731 12.662 118.083 11.5558C117.434 10.4495 116.498 9.49771 115.354 8.7797C115.247 8.70532 115.164 8.6061 115.115 8.49273C115.065 8.37936 115.052 8.25613 115.075 8.13632C115.098 8.0165 115.158 7.90465 115.247 7.81279C115.336 7.72094 115.452 7.65257 115.581 7.61505C116.71 7.28409 117.901 7.16006 119.085 7.25045C122.066 7.47325 124.923 10.2887 126.681 11.3014C130.788 13.4609 135.373 14.7949 140.116 15.2106C143.989 15.3285 147.858 14.8769 151.567 13.8738C151.715 13.8407 151.872 13.8461 152.017 13.8895C152.162 13.9329 152.291 14.0125 152.387 14.1189C152.483 14.2252 152.544 14.3539 152.561 14.4899C152.579 14.6259 152.552 14.7635 152.485 14.8865C151.62 16.3041 150.666 17.6769 149.628 18.9982C149.311 18.9982 144.526 19.2413 140.501 19.0691C136.476 18.897 130.195 15.7068 122.543 16.7196Z" fill="#222B36"/>
<path d="M91.0239 16.7196C87.5653 16.5069 84.0975 16.9914 80.8768 18.1374C76.0681 20.0006 70.8917 20.9887 65.6504 21.0439C66.4222 21.8918 67.2554 22.6936 68.1447 23.4441C71.2958 23.2445 74.4072 22.6968 77.4075 21.8136C81.0355 20.5173 84.3461 18.7754 91.3074 19.221C88.3133 19.2809 85.3499 19.7734 82.5321 20.6794C77.8723 22.1884 76.6705 23.6669 70.1968 24.9126C70.4669 25.0843 70.747 25.2432 71.0358 25.3886C72.0419 25.9052 73.1059 26.3261 74.2103 26.6444C74.2103 26.6444 79.9584 23.4543 83.5525 21.9453C86.3576 20.9305 89.3922 20.5244 92.4071 20.7604C89.2901 20.6724 86.203 21.326 83.4618 22.6542C80.8471 23.964 78.3459 25.4467 75.979 27.09C77.2879 27.353 78.6189 27.5189 79.9585 27.5862C79.9585 27.5862 83.235 22.8669 89.2553 22.8669H100.899C100.899 22.8669 94.4819 20.0312 94.4819 15.1397C94.4915 13.8908 94.835 12.662 95.4838 11.5558C96.1326 10.4495 97.068 9.49771 98.212 8.7797C98.3197 8.70532 98.4027 8.6061 98.4519 8.49273C98.5012 8.37936 98.5149 8.25613 98.4916 8.13632C98.4682 8.0165 98.4088 7.90465 98.3195 7.81279C98.2303 7.72094 98.1147 7.65257 97.9852 7.61505C96.8568 7.28409 95.6652 7.16006 94.4819 7.25045C91.5001 7.47325 88.643 10.2887 86.8857 11.3014C82.7785 13.4609 78.1938 14.7949 73.4507 15.2106C69.5775 15.3285 65.7089 14.8769 61.9997 13.8738C61.8511 13.8407 61.6949 13.8461 61.5496 13.8895C61.4043 13.9329 61.2759 14.0125 61.1795 14.1189C61.083 14.2252 61.0226 14.3539 61.0052 14.4899C60.9878 14.6259 61.0142 14.7635 61.0814 14.8865C61.9461 16.3041 62.9 17.6769 63.9385 18.9982C64.2559 18.9982 69.0404 19.2413 73.0652 19.0691C77.0901 18.897 83.371 15.7068 91.0239 16.7196Z" fill="#222B36"/>
<path d="M113.631 35.83C113.631 35.83 139.537 36.3161 138.88 46.1295C138.245 55.3657 112.157 57.1684 112.157 57.1684L113.155 52.6819C113.155 52.6819 135.014 52.0439 136.148 45.846C137.281 39.648 121.001 38.0884 113.472 38.0782L113.631 35.83Z" fill="#222B36"/>
<path d="M89.0965 48.074L81.6931 51.9832C79.9366 51.0496 78.3658 49.8621 77.0447 48.469L86.795 45.613C87.3457 46.5773 88.1323 47.4184 89.0965 48.074Z" fill="#79EE12"/>
<path d="M96.5114 33.3589L92.5886 41.0152L88.303 38.7365C87.6449 39.2808 87.1138 39.9358 86.7403 40.6641C86.3667 41.3923 86.158 42.1794 86.1262 42.9799L74.7092 43.5977V43.5369C74.7092 38.6555 82.0106 35.435 82.0106 35.435L77.8157 32.9842L96.5114 33.3589Z" fill="#79EE12"/>
<path d="M99.2664 51.6794L94.3572 56.0848C92.0734 55.7023 89.8257 55.164 87.634 54.4745L93.3028 50.14L93.4956 50.2109C95.375 50.8295 97.3041 51.3204 99.2664 51.6794Z" fill="#79EE12"/>
<path d="M110.321 52.7225L108.484 57.2089C105.65 57.2089 103.031 57.0773 100.616 56.8747L104.731 52.4389C106.931 52.6516 108.858 52.7123 110.321 52.7225Z" fill="#79EE12"/>
<path d="M83.5072 56.905H80.1059C80.0284 56.5925 79.9904 56.2732 79.9925 55.9531C79.9925 55.2745 81.1263 54.3124 81.1263 54.3124H83.2464C83.3144 55.1226 82.8269 56.186 83.5072 56.905Z" fill="#222B36"/>
<path d="M87.4979 59.4673L84.8336 61.908C83.3484 61.0877 81.7725 60.4901 80.9448 59.528L84.2101 57.6646C85.2141 58.3901 86.3193 58.996 87.4979 59.4673Z" fill="#222B36"/>
<path d="M89.6295 60.3483C91.0613 60.8076 92.5227 61.1898 94.0058 61.4927L92.2258 64.5309C90.3842 64.0812 88.5745 63.5334 86.8064 62.8903L89.6295 60.3483Z" fill="#222B36"/>
<path d="M106.783 65.7766C102.776 65.8996 98.7664 65.6382 94.822 64.9968L96.2619 61.827C99.6028 62.2556 102.979 62.4284 106.352 62.3434C117.928 62.3434 129.776 59.9838 130.422 55.5581H133.574C135.014 62.3738 121.601 65.7766 106.783 65.7766Z" fill="#222B36"/>
<path d="M86.5795 64.9462L84.7429 66.4147C83.8039 65.4775 83.3152 64.248 83.3823 62.9916H85.3324C85.3857 63.3748 85.5233 63.7448 85.7373 64.0803C85.9514 64.4157 86.2376 64.71 86.5795 64.9462Z" fill="#222B36"/>
<path d="M91.5115 67.2451L90.1169 69.6352C88.8337 69.1936 87.6184 68.6083 86.5002 67.8933L88.2009 65.9995C89.2478 66.5257 90.3585 66.9436 91.5115 67.2451Z" fill="#222B36"/>
<path d="M106.783 71.7316C101.878 71.8467 96.9785 71.3525 92.2256 70.2631L93.2233 67.6502C97.6977 68.4723 102.261 68.8425 106.828 68.7541C126.25 68.7541 128.098 63.0929 128.098 63.0929H130.218C130.218 63.0929 131.635 71.7316 106.783 71.7316Z" fill="#222B36"/>
<path d="M105.931 72.5317H107.53L107.235 78.3549H106.226L105.931 72.5317Z" fill="#222B36"/>
<path d="M107.836 66.354L107.745 68.106H105.715L105.625 66.354H107.836Z" fill="#222B36"/>
<path d="M108.221 58.6572L108.051 61.9688H105.409L105.239 58.6572H108.221Z" fill="#222B36"/>
</g>
<g transform="translate(50.7 -80.16)">
<path d="M128.567 119.833C127.516 119.833 126.706 119.54 126.136 118.953C125.576 118.366 125.296 117.521 125.296 116.418V108.273H123.693C123.553 108.273 123.435 108.234 123.338 108.155C123.242 108.067 123.194 107.936 123.194 107.761V106.828L125.375 106.552L125.913 102.44C125.931 102.309 125.988 102.204 126.084 102.125C126.18 102.037 126.303 101.994 126.452 101.994H127.634V106.578H131.444V108.273H127.634V116.26C127.634 116.821 127.77 117.237 128.041 117.508C128.313 117.78 128.663 117.915 129.092 117.915C129.337 117.915 129.548 117.885 129.723 117.823C129.907 117.753 130.064 117.679 130.196 117.6C130.327 117.521 130.437 117.451 130.524 117.39C130.62 117.32 130.704 117.285 130.774 117.285C130.896 117.285 131.006 117.359 131.102 117.508L131.785 118.625C131.382 119.001 130.896 119.299 130.327 119.518C129.758 119.728 129.171 119.833 128.567 119.833Z" fill="black"/>
<path d="M113.937 119.623V106.316H115.277C115.531 106.316 115.706 106.364 115.802 106.46C115.899 106.556 115.964 106.723 115.999 106.959L116.157 109.035C116.613 108.107 117.173 107.384 117.839 106.867C118.513 106.342 119.301 106.079 120.203 106.079C120.571 106.079 120.904 106.123 121.202 106.21C121.499 106.289 121.775 106.403 122.029 106.552L121.727 108.299C121.666 108.518 121.53 108.628 121.32 108.628C121.197 108.628 121.009 108.588 120.755 108.509C120.501 108.422 120.146 108.378 119.691 108.378C118.876 108.378 118.193 108.615 117.642 109.087C117.099 109.56 116.643 110.248 116.275 111.15V119.623H113.937Z" fill="black"/>
<path d="M104.724 106.105C105.696 106.105 106.572 106.267 107.351 106.591C108.139 106.916 108.805 107.375 109.348 107.971C109.9 108.566 110.32 109.289 110.609 110.138C110.907 110.979 111.056 111.921 111.056 112.963C111.056 114.014 110.907 114.96 110.609 115.8C110.32 116.641 109.9 117.359 109.348 117.955C108.805 118.55 108.139 119.01 107.351 119.334C106.572 119.649 105.696 119.807 104.724 119.807C103.752 119.807 102.872 119.649 102.083 119.334C101.304 119.01 100.638 118.55 100.087 117.955C99.5349 117.359 99.1101 116.641 98.8124 115.8C98.5146 114.96 98.3657 114.014 98.3657 112.963C98.3657 111.921 98.5146 110.979 98.8124 110.138C99.1101 109.289 99.5349 108.566 100.087 107.971C100.638 107.375 101.304 106.916 102.083 106.591C102.872 106.267 103.752 106.105 104.724 106.105ZM104.724 117.981C106.038 117.981 107.018 117.543 107.667 116.667C108.315 115.783 108.639 114.552 108.639 112.976C108.639 111.391 108.315 110.156 107.667 109.271C107.018 108.387 106.038 107.945 104.724 107.945C104.058 107.945 103.48 108.058 102.99 108.286C102.499 108.514 102.088 108.842 101.755 109.271C101.431 109.701 101.186 110.23 101.019 110.861C100.862 111.483 100.783 112.188 100.783 112.976C100.783 113.764 100.862 114.469 101.019 115.091C101.186 115.713 101.431 116.238 101.755 116.667C102.088 117.088 102.499 117.412 102.99 117.639C103.48 117.867 104.058 117.981 104.724 117.981Z" fill="black"/>
<path d="M84.8411 124.129V106.316H86.2336C86.5664 106.316 86.7765 106.478 86.8641 106.802L87.0612 108.378C87.6304 107.686 88.2785 107.13 89.0054 106.71C89.7411 106.289 90.5862 106.079 91.5408 106.079C92.3027 106.079 92.9946 106.228 93.6164 106.526C94.2382 106.815 94.7681 107.248 95.206 107.826C95.6439 108.396 95.981 109.105 96.2175 109.954C96.454 110.804 96.5722 111.78 96.5722 112.884C96.5722 113.865 96.4408 114.78 96.1781 115.63C95.9154 116.47 95.5388 117.202 95.0483 117.823C94.5579 118.436 93.9536 118.923 93.2355 119.282C92.5261 119.632 91.7247 119.807 90.8314 119.807C90.0082 119.807 89.3032 119.671 88.7164 119.4C88.1384 119.128 87.6261 118.743 87.1794 118.244V124.129H84.8411ZM90.7657 107.971C90.0038 107.971 89.3338 108.146 88.7558 108.496C88.1866 108.847 87.6611 109.341 87.1794 109.981V116.418C87.6085 116.996 88.0771 117.403 88.585 117.639C89.1018 117.876 89.6754 117.994 90.306 117.994C91.5408 117.994 92.491 117.552 93.1566 116.667C93.8222 115.783 94.155 114.522 94.155 112.884C94.155 112.017 94.0762 111.273 93.9186 110.651C93.7697 110.029 93.5507 109.521 93.2617 109.127C92.9727 108.724 92.618 108.431 92.1977 108.247C91.7773 108.063 91.3 107.971 90.7657 107.971Z" fill="black"/>
<path d="M76.041 105.79C76.943 105.79 77.7663 105.93 78.5107 106.211C79.2639 106.491 79.9076 106.898 80.4418 107.432C80.9848 107.966 81.4051 108.623 81.7029 109.403C82.0094 110.173 82.1627 111.049 82.1627 112.03C82.1627 112.337 82.1496 112.586 82.1233 112.779C82.097 112.972 82.0488 113.125 81.9788 113.239C81.9087 113.353 81.8124 113.431 81.6898 113.475C81.5759 113.519 81.427 113.541 81.2431 113.541H73.3873C73.5187 114.679 73.8646 115.507 74.4251 116.024C74.9856 116.532 75.7082 116.786 76.5927 116.786C77.0656 116.786 77.4729 116.729 77.8144 116.615C78.156 116.501 78.4581 116.374 78.7209 116.234C78.9924 116.094 79.2376 115.967 79.4565 115.853C79.6842 115.739 79.9207 115.682 80.1659 115.682C80.4899 115.682 80.7352 115.8 80.9016 116.037L82.0839 117.495C81.6635 117.977 81.2081 118.371 80.7177 118.677C80.236 118.975 79.7368 119.212 79.2201 119.387C78.7121 119.553 78.1998 119.667 77.6831 119.728C77.1751 119.798 76.689 119.833 76.2249 119.833C75.2703 119.833 74.3726 119.68 73.5318 119.374C72.6998 119.058 71.9686 118.594 71.338 117.981C70.7162 117.368 70.2214 116.606 69.8535 115.695C69.4945 114.784 69.3149 113.725 69.3149 112.516C69.3149 111.605 69.4682 110.743 69.7747 109.928C70.09 109.114 70.5367 108.4 71.1147 107.787C71.7015 107.174 72.4065 106.688 73.2297 106.329C74.0617 105.97 74.9988 105.79 76.041 105.79ZM76.1198 108.601C75.3403 108.601 74.7317 108.825 74.2938 109.271C73.8559 109.709 73.5669 110.344 73.4268 111.176H78.5107C78.5107 110.852 78.4669 110.537 78.3793 110.23C78.3005 109.924 78.1647 109.652 77.9721 109.416C77.7882 109.171 77.5429 108.974 77.2364 108.825C76.9299 108.676 76.5577 108.601 76.1198 108.601Z" fill="black"/>
<path d="M66.9201 99.9574V119.623H62.8477V99.9574H66.9201Z" fill="black"/>
<path d="M54.2575 105.79C55.1596 105.79 55.9828 105.93 56.7272 106.211C57.4804 106.491 58.1241 106.898 58.6583 107.432C59.2013 107.966 59.6217 108.623 59.9195 109.403C60.226 110.173 60.3793 111.049 60.3793 112.03C60.3793 112.337 60.3661 112.586 60.3398 112.779C60.3136 112.972 60.2654 113.125 60.1953 113.239C60.1253 113.353 60.0289 113.431 59.9063 113.475C59.7925 113.519 59.6436 113.541 59.4597 113.541H51.6039C51.7353 114.679 52.0812 115.507 52.6417 116.024C53.2022 116.532 53.9247 116.786 54.8093 116.786C55.2822 116.786 55.6894 116.729 56.031 116.615C56.3725 116.501 56.6747 116.374 56.9374 116.234C57.2089 116.094 57.4541 115.967 57.6731 115.853C57.9008 115.739 58.1372 115.682 58.3825 115.682C58.7065 115.682 58.9517 115.8 59.1181 116.037L60.3004 117.495C59.8801 117.977 59.4246 118.371 58.9342 118.677C58.4525 118.975 57.9533 119.212 57.4366 119.387C56.9287 119.553 56.4163 119.667 55.8996 119.728C55.3917 119.798 54.9056 119.833 54.4414 119.833C53.4868 119.833 52.5891 119.68 51.7484 119.374C50.9164 119.058 50.1851 118.594 49.5546 117.981C48.9327 117.368 48.4379 116.606 48.0701 115.695C47.711 114.784 47.5315 113.725 47.5315 112.516C47.5315 111.605 47.6848 110.743 47.9913 109.928C48.3066 109.114 48.7532 108.4 49.3312 107.787C49.918 107.174 50.623 106.688 51.4463 106.329C52.2782 105.97 53.2153 105.79 54.2575 105.79ZM54.3363 108.601C53.5569 108.601 52.9482 108.825 52.5103 109.271C52.0724 109.709 51.7834 110.344 51.6433 111.176H56.7272C56.7272 110.852 56.6834 110.537 56.5959 110.23C56.517 109.924 56.3813 109.652 56.1886 109.416C56.0047 109.171 55.7595 108.974 55.453 108.825C55.1464 108.676 54.7742 108.601 54.3363 108.601Z" fill="black"/>
<path d="M49.2124 100.483V104.004H43.8263V119.623H39.3861V104.004H34V100.483H49.2124Z" fill="black"/>
<path d="M178.078 110.046C178.078 111.43 177.838 112.709 177.356 113.882C176.883 115.047 176.213 116.059 175.346 116.917C174.479 117.766 173.432 118.432 172.206 118.914C170.989 119.387 169.636 119.623 168.147 119.623H160.712V100.483H168.147C169.636 100.483 170.989 100.724 172.206 101.205C173.432 101.687 174.479 102.353 175.346 103.202C176.213 104.052 176.883 105.063 177.356 106.237C177.838 107.402 178.078 108.671 178.078 110.046ZM173.533 110.046C173.533 109.101 173.411 108.247 173.165 107.485C172.92 106.723 172.565 106.079 172.101 105.554C171.646 105.019 171.085 104.612 170.42 104.332C169.754 104.043 168.997 103.898 168.147 103.898H165.178V116.208H168.147C168.997 116.208 169.754 116.067 170.42 115.787C171.085 115.498 171.646 115.091 172.101 114.565C172.565 114.031 172.92 113.383 173.165 112.621C173.411 111.859 173.533 111.001 173.533 110.046Z" fill="#79EE12"/>
<path d="M145.816 110.874C145.991 111.207 146.157 111.553 146.315 111.912C146.481 112.271 146.639 112.639 146.788 113.015C146.937 112.63 147.094 112.258 147.261 111.899C147.427 111.531 147.598 111.176 147.773 110.835L152.686 101.166C152.774 101 152.861 100.873 152.949 100.785C153.045 100.689 153.15 100.619 153.264 100.575C153.378 100.531 153.505 100.505 153.645 100.496C153.794 100.487 153.965 100.483 154.158 100.483H157.547V119.623H153.632V108.615C153.632 108.08 153.658 107.502 153.711 106.88L148.64 116.72C148.482 117.026 148.268 117.259 147.996 117.416C147.734 117.574 147.432 117.653 147.09 117.653H146.486C146.144 117.653 145.838 117.574 145.566 117.416C145.303 117.259 145.093 117.026 144.936 116.72L139.838 106.867C139.874 107.174 139.9 107.48 139.917 107.787C139.935 108.085 139.944 108.361 139.944 108.615V119.623H136.029V100.483H139.418C139.611 100.483 139.777 100.487 139.917 100.496C140.066 100.505 140.198 100.531 140.311 100.575C140.425 100.619 140.526 100.689 140.614 100.785C140.71 100.873 140.802 101 140.889 101.166L145.816 110.874Z" fill="#79EE12"/>
</g>
</svg>
